<svg class="icon" viewBox="0 0 1024 1024" xmlns="http://www.w3.org/2000/svg" width="200" height="200"><defs><style>:not(pre){-webkit-text-stroke:0!important}@font-face{font-family:feedback-iconfont;src:url(//at.alicdn.com/t/font_1031158_u69w8yhxdu.woff2?t=1630033759944) format(&quot;woff2&quot;),url(//at.alicdn.com/t/font_1031158_u69w8yhxdu.woff?t=1630033759944) format(&quot;woff&quot;),url(//at.alicdn.com/t/font_1031158_u69w8yhxdu.ttf?t=1630033759944) format(&quot;truetype&quot;)}</style></defs><path d="M753.108 318.179l-186.25 186.249-128-128-250.643 250.644 25.858 25.856 224.784-224.784 128 128 212.107-212.107 30.43 30.392L841.142 256l-118.464 31.75z"/><path d="M950.857 109.714H548.571V73.143c0-20.215-16.356-36.572-36.571-36.572s-36.571 16.357-36.571 36.572v36.571H73.143c-20.215 0-36.572 16.375-36.572 36.572V768c0 20.215 16.357 36.571 36.572 36.571h167.715l-157 157c-14.285 14.285-14.285 37.429 0 51.714 7.143 7.144 16.5 10.715 25.856 10.715s18.714-3.571 25.858-10.714l208.713-208.715h335.43l208.715 208.715c7.142 7.143 16.499 10.714 25.856 10.714s18.713-3.571 25.858-10.714c14.284-14.284 14.284-37.429 0-51.713L783.142 804.57h167.715c20.215 0 36.572-16.356 36.572-36.571V146.286c0-20.197-16.357-36.572-36.572-36.572zM109.714 731.43V182.857h804.572V731.43H109.714z"/></svg>